<?xml version="1.0"?>
<svg xmlns="http://www.w3.org/2000/svg" viewBox="0 0 512 512" width="512" height="512"><g id="Filled_outline" data-name="Filled outline"><path d="M392.678,144.79a24.2,24.2,0,0,1,17.015,29.133l-.44,1.827,8.114-9.646c8.677-10.309,24.314-11.811,34.323-2.822a24.413,24.413,0,0,1,2.322,33.781l-6.469,7.7,11.371-2.321a24.164,24.164,0,0,1,9.935,47.3l-9.285,1.894a24.162,24.162,0,0,1-15.447,45.721L414,289.026l4.723,2.962c11.377,7.113,15.216,22.55,7.979,33.949a23.66,23.66,0,0,1-32.573,7.485h0a6.053,6.053,0,0,0-9.212,4.649,24.258,24.258,0,0,1-5.7,13.365c-8.578,10.036-23.7,10.864-33.752,2.357l-2.567-2.176a24.341,24.341,0,0,1-3.311,12.725,23.86,23.86,0,0,1-9.961,9.379,23.535,23.535,0,0,1-22.7-.84c-20.806-11.18-46.254-13.688-67.06-3.273a59.084,59.084,0,0,0-5.424,3.086C207.461,389.952,200.309,414.17,174.5,438a71.7,71.7,0,0,1-16.714,11.558c-27.31,13.671-53.553,19.852-69.577-4.744a1.088,1.088,0,0,0-.093-.145,53.372,53.372,0,0,1-3.638-6.6c-17.013-36.685,16.53-69.575,65.5-81.01,4.4-1.031,8.9-1.869,13.465-2.5a74.683,74.683,0,0,0,58.182-43.787c6.252-14.287,9.3-33.037,5.331-58.05-1.787-10.813,3.59-21.55,12.964-26.242a23.153,23.153,0,0,1,4.31-1.641,23.664,23.664,0,0,1,24.193,7.53l-1.889-10.021a24.166,24.166,0,0,1,18.979-28.275,23.352,23.352,0,0,1,12.776,1.088,23.907,23.907,0,0,1,10.141,7.35l-.577-12.812a24.061,24.061,0,0,1,22.279-25.231c13.35-.874,24.793,10.038,25.4,23.576l.248,5.629,7.471-30.763C366.441,149.743,379.762,141.3,392.678,144.79Z" style="fill:#809e39"/><path d="M367.21,119.322a24.2,24.2,0,0,0-29.133-17.015l-1.827.44,9.646-8.114c10.309-8.677,11.811-24.314,2.822-34.323a24.413,24.413,0,0,0-33.781-2.322l-7.7,6.469,2.321-11.371a24.164,24.164,0,0,0-47.3-9.935l-1.894,9.285a24.162,24.162,0,0,0-45.721,15.447L222.974,98l-2.962-4.723C212.9,81.9,197.462,78.065,186.063,85.3a23.66,23.66,0,0,0-7.485,32.573h0a6.053,6.053,0,0,1-4.649,9.212,24.258,24.258,0,0,0-13.365,5.7c-10.036,8.578-10.864,23.7-2.357,33.752l2.176,2.567a24.341,24.341,0,0,0-12.725,3.311,23.86,23.86,0,0,0-9.379,9.961,23.535,23.535,0,0,0,.84,22.7c11.18,20.806,13.688,46.254,3.273,67.06a58.784,58.784,0,0,1-3.084,5.421C122.284,304.135,98.224,318.46,79,343c-16.717,21.34-40.6,62.039-11.814,80.791a1.088,1.088,0,0,1,.145.093,53.372,53.372,0,0,0,6.605,3.638c36.685,17.013,69.575-16.53,81.01-65.5,1.031-4.4,1.869-8.9,2.5-13.465a74.683,74.683,0,0,1,43.787-58.182c14.287-6.252,33.037-9.3,58.05-5.331,10.813,1.787,21.55-3.59,26.242-12.964a23.153,23.153,0,0,0,1.641-4.31,23.664,23.664,0,0,0-7.53-24.193l10.021,1.889a24.166,24.166,0,0,0,28.275-18.979,23.352,23.352,0,0,0-1.088-12.776,23.907,23.907,0,0,0-7.35-10.141l12.812.577a24.061,24.061,0,0,0,25.231-22.279c.874-13.35-10.038-24.793-23.576-25.4l-5.629-.248,30.763-7.471C362.257,145.559,370.7,132.238,367.21,119.322Z" style="fill:#8bab43"/><path d="M487.1,418.96a24.007,24.007,0,0,1-29.24,16.58l-9.21-2.45a23.979,23.979,0,0,1-.07,32.49c-8.92,9.67-24.12,10.03-33.96,1.31L391.1,446.06l2.96,4.74c7.14,11.4,3.82,26.85-7.71,33.78a24.014,24.014,0,0,1-32.69-7.86l-6.75-10.79a24,24,0,0,1-14.62,20.18c-12.15,5.11-26.16-.88-31.49-12.94l-1.36-3.08a24,24,0,0,1-41.8,2.9c-13.86-19.22-35.72-32.79-59.07-32.79a59.76,59.76,0,0,0-6.25.33C154.52,444.49,126.85,488,80,488a74.73,74.73,0,0,1-7.5-.38,1.114,1.114,0,0,0-.17-.02c-29.03-3.65-48.3-31.12-48.3-61.77a72.191,72.191,0,0,1,2.84-20.16c18.8-19.71,58.97-25.3,96.14-16.65,4.46,1.04,8.88,2.28,13.22,3.73,24.56,8.2,51.85,3.53,71.74-13.05,11.92-9.92,22.91-25.26,30.32-49.28a24.552,24.552,0,0,1,23.21-17.59,23.618,23.618,0,0,1,4.63.47,23.983,23.983,0,0,1,18.52,17.47l2.7-9.76a24,24,0,0,1,46.52,1.01l5.11-11.66a24,24,0,0,1,31.19-12.52c12.43,5.17,17.96,19.97,12.56,32.29l-2.25,5.12,20.26-24.05c8.66-10.29,24.39-11.87,34.51-3.01a24,24,0,0,1,2.55,33.52l-1.2,1.43,11.56-4.98c12.36-5.31,27.13.33,32.21,12.79a24,24,0,0,1-12.75,31.1l-9.22,3.96,11.28,3C482.68,392.47,490.81,406.03,487.1,418.96Z" style="fill:#94b54a"/><path d="M201.63,173.02l-11.66,5.11a24.051,24.051,0,0,1,11.06,5.92,24.012,24.012,0,0,1-10.05,40.6l-9.76,2.7a24.01,24.01,0,0,1,17.48,18.52,23.475,23.475,0,0,1,.46,4.61,24.557,24.557,0,0,1-17.58,23.23c-24.03,7.41-39.36,18.4-49.29,30.32-16.57,19.89-21.25,47.18-13.05,71.74,1.47,4.4,2.73,8.83,3.77,13.25C134.65,438.23,120.23,487.23,80,488c-1.09.02-2.16.01-3.22-.04-1.45-.05-2.88-.17-4.28-.34a1.114,1.114,0,0,0-.17-.02c-26.14-3.29-44.37-25.89-47.73-52.74a70.965,70.965,0,0,1-.57-9.03,72.191,72.191,0,0,1,2.84-20.16c9.71-33.76,41.25-54.06,44.59-85.99a59.76,59.76,0,0,0,.33-6.25c0-23.35-13.57-45.21-32.79-59.07a24.01,24.01,0,0,1,2.9-41.8l-3.08-1.36c-12.05-5.33-18.05-19.34-12.94-31.49a24.017,24.017,0,0,1,20.18-14.62l-10.79-6.75a24,24,0,0,1-7.85-32.68c6.92-11.54,22.37-14.86,33.77-7.72l4.74,2.96L45.1,97.38c-8.72-9.84-8.36-25.04,1.31-33.96a23.992,23.992,0,0,1,32.5-.07l-2.45-9.21A23.993,23.993,0,0,1,93.03,24.9c12.93-3.71,26.49,4.42,29.95,17.42l3,11.28,3.97-9.22a24,24,0,0,1,31.1-12.75c12.46,5.08,18.09,19.85,12.78,32.21L168.86,75.4l1.43-1.2a23.989,23.989,0,0,1,33.51,2.55c8.86,10.12,7.28,25.85-3.01,34.51l-24.05,20.26,5.12-2.25c12.32-5.4,27.13.13,32.3,12.56A24,24,0,0,1,201.63,173.02Z" style="fill:#9bbc50"/><path d="M76.78,487.96c-1.45-.05-2.88-.17-4.28-.34a1.114,1.114,0,0,0-.17-.02c-26.14-3.29-44.37-25.89-47.73-52.74,10.49-6.39,27.91-1.85,41.15,11.39C79.22,459.72,83.69,477.54,76.78,487.96Z" style="fill:#aac962"/><path d="M491.807,396.819a33.075,33.075,0,0,0-12.774-12.6,32.2,32.2,0,0,0,8.745-36.287,31.476,31.476,0,0,0-17.4-17.3,33.076,33.076,0,0,0-19.094-1.781,32.174,32.174,0,0,0-7.5-23.348,32.209,32.209,0,0,0,37.7-22.241,32.558,32.558,0,0,0-4.648-27.716,32.458,32.458,0,0,0,18.654-35.217,31.623,31.623,0,0,0-13.519-20.735A32.692,32.692,0,0,0,465.142,194a32.642,32.642,0,0,0-8.107-36.672,31.1,31.1,0,0,0-23.171-7.887,32.706,32.706,0,0,0-17.785,6.853,32,32,0,0,0-21.312-19.227A30.6,30.6,0,0,0,381.8,136.4l2.566,15.793a14.7,14.7,0,0,1,6.235.321,16.27,16.27,0,0,1,11.315,19.534l-.44,1.83a8,8,0,0,0,13.9,7.023l8.122-9.652a16.607,16.607,0,0,1,11.489-5.847,15.243,15.243,0,0,1,11.36,3.827,16.467,16.467,0,0,1,1.543,22.685l-6.47,7.7A8,8,0,0,0,449.14,212.6l11.367-2.319a16.479,16.479,0,0,1,12.47,2.546,15.757,15.757,0,0,1,6.759,10.318A16.232,16.232,0,0,1,467.255,241.9l-9.29,1.89a8,8,0,0,0-1.326,15.287,16.332,16.332,0,0,1,9.478,19.712,16.163,16.163,0,0,1-19.867,10.849l-30.12-8.321a8,8,0,0,0-6.381,14.489l.218.137a32.646,32.646,0,0,0-15.345,10.1l-3.391,4.025a31.758,31.758,0,0,0-39.223-20.784,91.067,91.067,0,0,0-19.434-2.324c1.058-.854,2.122-1.72,3.17-2.555,8.624-6.87,17.192-13.32,25.493-19.2,28.35-7.47,59.193,5.963,59.508,6.1l6.521-14.611a129.377,129.377,0,0,0-38.7-9.411c17.825-10.662,27.767-14.431,27.906-14.482l-2.773-7.5-2.757-7.51c-.638.234-12.032,4.5-32.266,16.763a131.032,131.032,0,0,0,4.489-38.741l-15.973.922c.019.334,1.692,32.664-13.1,53.932-.3.213-.6.418-.906.633-8.915,6.281-18.137,13.209-27.408,20.593-.711.567-1.435,1.159-2.15,1.734a118.884,118.884,0,0,0-.931-36.815,31.59,31.59,0,0,0,2.087-24.666c16.169-.7,29.687-13.512,30.742-29.752a30.715,30.715,0,0,0-4.711-18.485c-.034-.056-.068-.113-.1-.169a32.719,32.719,0,0,0-4.851-5.969l5.127-1.245a33.1,33.1,0,0,0,20.569-15.211,31.034,31.034,0,0,0,3.381-24.078,32.012,32.012,0,0,0-19.227-21.317,32.7,32.7,0,0,0,6.852-17.785,31.113,31.113,0,0,0-7.89-23.172A32.639,32.639,0,0,0,318,46.856a32.689,32.689,0,0,0-5.589-16.821,31.62,31.62,0,0,0-20.728-13.519,32.45,32.45,0,0,0-35.224,18.652,32.554,32.554,0,0,0-27.709-4.651,31.941,31.941,0,0,0-22.242,23.965l15.633,3.408a15.959,15.959,0,0,1,11.077-12.009,16.329,16.329,0,0,1,19.705,9.481,8,8,0,0,0,15.287-1.327l1.888-9.282a16.228,16.228,0,0,1,18.766-12.487,15.757,15.757,0,0,1,10.312,6.758,16.486,16.486,0,0,1,2.545,12.467l-2.32,11.37a8,8,0,0,0,12.986,7.724l7.709-6.477a16.461,16.461,0,0,1,22.672,1.548,15.237,15.237,0,0,1,3.83,11.361,16.612,16.612,0,0,1-5.848,11.492l-9.65,8.12a8,8,0,0,0,7.02,13.9l1.848-.444a16.264,16.264,0,0,1,19.518,11.322,15.162,15.162,0,0,1-1.7,11.756,17,17,0,0,1-10.573,7.814l-30.76,7.47a8,8,0,0,0,1.532,15.766l5.616.25a16.989,16.989,0,0,1,13.452,7.621q.126.213.262.417a14.823,14.823,0,0,1,2.243,8.852,16.153,16.153,0,0,1-16.889,14.806l-12.8-.58a8,8,0,0,0-5.4,14.21,15.84,15.84,0,0,1,5.617,15.191,15.492,15.492,0,0,1-2.442,5.862,16.323,16.323,0,0,1-16.5,6.768l-10.026-1.891a8,8,0,0,0-6.663,13.957,15.213,15.213,0,0,1,2.371,2.535c6.729,9.057,1.748,21.751-8.916,24.592a17.328,17.328,0,0,1-7.351.349c-1.565-.252-3.139-.477-4.638-.664a130.44,130.44,0,0,0-28.175-.779l-.15.012a93.476,93.476,0,0,0-29.563,7.33,82.454,82.454,0,0,0-45.11,49.807,83.282,83.282,0,0,0-3.4,14.618c-.583,4.263-1.372,8.536-2.364,12.723a132.017,132.017,0,0,1-8.431,24.952c-2.971-.991-6.035-1.9-9.143-2.724-.826-3.075-1.742-6.151-2.758-9.19-7.373-22.084-2.926-46.64,11.609-64.086,10.238-12.29,25.546-21.642,45.451-27.78a32.641,32.641,0,0,0,23.272-30.89,31.506,31.506,0,0,0-.379-4.826c16.061,1.309,30.169,9.085,30.329,9.174l7.86-13.936c-.91-.513-20.271-11.266-42.226-11.417,5.063-5.45,10.032-10.945,14.856-16.426a10.558,10.558,0,0,0,2.183-1.763c21.948-13.462,55.274-5.695,55.624-5.611l1.88-7.776,1.891-7.774a118.769,118.769,0,0,0-40.825-1.734c7.786-9.686,15.02-19.235,21.621-28.559C282,143.027,313.418,135.88,313.735,135.81L312,128l-1.729-7.811a188.684,188.684,0,0,0-31.228,10.476c11.04-18.571,14.943-29,15.167-29.608L279.2,95.527c-.053.143-4.079,10.766-15.592,29.748A92.441,92.441,0,0,0,249.494,89l-13.062,9.239c.177.254,17.4,25.28,10.359,52.525q-9.932,14.014-21.754,28.661a90.935,90.935,0,0,0-2.352-19.551,31.537,31.537,0,0,0-18.663-38.294q-1.06-.427-2.143-.775l4.062-3.422a32.959,32.959,0,0,0,11.543-22.593,31.439,31.439,0,0,0-7.663-23.3,32.049,32.049,0,0,0-26.676-10.765,33.086,33.086,0,0,0-1.781-19.1,31.46,31.46,0,0,0-17.3-17.395,32.2,32.2,0,0,0-36.292,8.748,33.063,33.063,0,0,0-12.606-12.776,31.43,31.43,0,0,0-24.341-2.984A32.192,32.192,0,0,0,67.695,49.491,32.1,32.1,0,0,0,40.986,57.54C28.279,69.261,27.439,89.513,39.11,102.684l3.511,3.963q-1.116.188-2.223.452a31.457,31.457,0,0,0-19.837,14.444A32.175,32.175,0,0,0,28.676,163.5a31.89,31.89,0,0,0-.965,50.1,32.014,32.014,0,0,0,6.744,47.349c18.372,13.3,29.335,32.914,29.335,52.484a52.128,52.128,0,0,1-.287,5.418c-1.572,15.034-10.8,27.856-20.571,41.43-9.278,12.89-18.871,26.219-23.748,43.175-.573,1.983-1.075,4.012-1.494,6.032l15.668,3.246c.336-1.622.74-3.252,1.2-4.85,4.11-14.292,12.879-26.474,21.358-38.256,7.815-10.857,15.817-21.993,20.272-34.851l.268.1c8.751-22.524,16.093-43.719,22.259-63.526l.063.015c.037-.153.066-.306.1-.459l.066.038c13.586-23.778,49.112-25.963,49.469-25.982l-.814-15.979c-1.237.062-21.535,1.244-40.016,11.971q3.51-12.915,6.33-24.861c12.332-23.875,45.633-32.266,45.971-32.349L158,175.972l-1.872-7.778a109.532,109.532,0,0,0-35.548,16.873c2.527-13.2,4.424-25.23,5.838-36.037,11.7-23.734,41.6-37.645,41.9-37.784L165,103.968l-3.311-7.283a128.663,128.663,0,0,0-32.213,22.2c1.614-23.288.615-36.21.5-37.6l-15.943,1.362c.027.323.9,12.014-.578,33.694a93.626,93.626,0,0,0-28.6-26.384l-7.694,14.029c.277.151,27.719,15.5,32.976,44.419l.04-.007c-1.435,10.728-3.346,22.68-5.888,35.8-13.044-26.772-31.059-35.1-32.032-35.535L65.68,163.249c.947.444,23,11.212,32.133,50.838q-2.618,10.988-5.8,22.794a100.806,100.806,0,0,0-19.831-24L61.807,225.06c7.1,6.073,24.373,24.983,21.687,41.192Q79.916,277.811,75.778,290c-5.57-16.166-16.725-31.045-32.1-42.132-.1-.072-.2-.141-.3-.208A16.009,16.009,0,0,1,45.312,219.8a8,8,0,0,0-.18-14.554l-3.075-1.358c-8.213-3.633-12.162-13.086-8.806-21.065a16,16,0,0,1,13.467-9.756A8,8,0,0,0,50.3,158.308l-10.788-6.749a16.074,16.074,0,0,1-5.234-21.785,15.579,15.579,0,0,1,9.851-7.116,16.862,16.862,0,0,1,12.82,2.068l4.74,2.96A8,8,0,0,0,71.919,115.6L51.087,92.074c-5.938-6.7-5.6-16.917.751-22.777A16.079,16.079,0,0,1,73.5,69.242a8,8,0,0,0,13.143-7.949L84.19,52.082A16.074,16.074,0,0,1,95.236,32.589a15.574,15.574,0,0,1,12.044,1.524,16.886,16.886,0,0,1,7.969,10.263l3,11.28a8,8,0,0,0,15.079,1.108l3.973-9.228a16.079,16.079,0,0,1,20.728-8.5,15.576,15.576,0,0,1,8.53,8.645,16.894,16.894,0,0,1-.079,13l-4.97,11.56A8,8,0,0,0,174,81.53l1.444-1.211a16.068,16.068,0,0,1,22.336,1.7,15.567,15.567,0,0,1,3.75,11.552,16.869,16.869,0,0,1-5.894,11.57l-24.05,20.26a8,8,0,0,0,8.373,13.442l5.112-2.247a16.887,16.887,0,0,1,12.991-.172,15.6,15.6,0,0,1,8.712,8.478,16.076,16.076,0,0,1-8.355,20.79l-11.66,5.11a8,8,0,0,0,1.408,15.121,16.064,16.064,0,0,1,7.388,3.959,15.855,15.855,0,0,1,4.426,7.359,16.02,16.02,0,0,1-11.133,19.7l-9.761,2.7a8,8,0,0,0,.105,15.449,16.011,16.011,0,0,1,.031,30.976c-22.966,7.082-40.825,18.133-53.079,32.845C108.09,320.581,102.536,351,111.652,378.305c1.387,4.15,2.588,8.372,3.573,12.557a136.931,136.931,0,0,1,3.622,25.958c.811,20.328-3.5,38.3-12.481,49.878A32.836,32.836,0,0,1,87.9,478.99c.969-12.363-4.913-26.822-16.488-38.4C55.7,424.888,34.268,419.6,20.438,428.028a8,8,0,0,0-3.777,7.826c4.017,32.088,25.986,56.073,54.67,59.684l.148.017.057.007.149.015.038,0,.14.013c28.785,3.337,54.055-11.309,77.144-26.475,1.753-1.152,20.606-13.139,28.4-16.385.1-.041,14.116-4.535,21.164-4.535,19.571,0,39.179,10.963,52.483,29.334a32.021,32.021,0,0,0,47.348,6.747,31.9,31.9,0,0,0,50.1-.965,32.208,32.208,0,0,0,41.969,8.121A31.485,31.485,0,0,0,404.9,471.583q.264-1.1.45-2.213l3.96,3.507c13.173,11.673,33.425,10.833,45.14-1.866a32.077,32.077,0,0,0,8.061-26.71,32.207,32.207,0,0,0,32.274-23.134A31.448,31.448,0,0,0,491.807,396.819ZM292.676,275.677a30.771,30.771,0,0,0,2.22-5.832,31.577,31.577,0,0,0,.144-15.966,32.459,32.459,0,0,0,13.287-3.239c.918,12,.326,29.412-8.153,42.477q-.129.18-.249.366c-.03.047-.064.093-.094.14-5.731,5.029-11.524,10.265-17.31,15.64a83.216,83.216,0,0,0-2.8-20.12A31.814,31.814,0,0,0,292.676,275.677ZM253.9,292.358c1.355.169,2.742.368,4.1.586a33.544,33.544,0,0,0,6.294.427,70.677,70.677,0,0,1,2.054,11.847c-15.9-2.458-31.113,7.637-35.694,22.844-6.159,19.96-15.509,35.266-27.8,45.493a66.6,66.6,0,0,1-48.089,14.892,150.164,150.164,0,0,0,7.975-24.583c.091-.382.179-.771.267-1.159.515-.077,1.025-.161,1.543-.232a83.105,83.105,0,0,0,64.4-48.5,90.767,90.767,0,0,0,6.489-22.669A121.581,121.581,0,0,1,253.9,292.358Zm-49.439,5.347a72.95,72.95,0,0,1,14.392-4.557,72.944,72.944,0,0,1-4.558,14.4A66.969,66.969,0,0,1,166,346.005a66.762,66.762,0,0,1,38.457-48.3ZM33.632,440.123c7.11-.838,17.441,2.764,26.461,11.784,7.593,7.593,13.332,19.26,11.674,27.53C53.044,476.37,38.367,461.061,33.632,440.123Zm445.776-23.365a16.079,16.079,0,0,1-19.491,11.051l-9.21-2.45a8,8,0,0,0-7.945,13.145,16.058,16.058,0,0,1-.062,21.652c-5.858,6.351-16.074,6.684-22.776.745L396.4,440.071A8,8,0,0,0,384.314,450.3l2.965,4.749a16.865,16.865,0,0,1,2.065,12.811,15.6,15.6,0,0,1-7.1,9.859,16.094,16.094,0,0,1-21.8-5.238l-6.75-10.79a8,8,0,0,0-14.754,3.585,15.993,15.993,0,0,1-9.75,13.462c-7.987,3.362-17.441-.587-21.069-8.8l-1.359-3.08a8,8,0,0,0-14.559-.175,16,16,0,0,1-27.865,1.929c-.066-.1-.136-.2-.207-.3-11.085-15.373-25.963-26.527-42.128-32.1q11.169-3.8,21.821-7.121l.045.187c16.566-3.985,36.781,13.821,43.167,21.015l11.99-10.594a102.184,102.184,0,0,0-24.533-19.554q12.143-3.291,23.423-5.966c39.626,9.135,50.394,31.186,50.837,32.132l7.277-3.319,7.312-3.249c-.433-.973-8.763-18.988-35.534-32.033,13.12-2.541,25.072-4.452,35.8-5.887l-.007.04c28.7,5.219,44.275,32.717,44.429,32.994l14.019-7.712a93.656,93.656,0,0,0-26.384-28.6c21.68-1.476,33.372-.606,33.693-.579l1.363-15.942c-1.394-.12-14.316-1.119-37.606.5a128.659,128.659,0,0,0,22.2-32.214l-14.566-6.621c-.137.3-13.925,30.142-37.78,41.893-11.1,1.454-23.491,3.412-37.121,6.044A121.228,121.228,0,0,0,343.719,356.2l-15.378-4.415c-.1.341-9.832,33.186-32.665,46.352q-11.845,2.817-24.632,6.275c10.727-18.48,11.909-38.779,11.971-40.015l-15.981-.8a83.655,83.655,0,0,1-4.1,19.87c-4.667,14-12.029,23.954-21.88,29.584l.05.088c-19.939,6.2-41.285,13.582-63.983,22.4,0,0-6.032,2.491-6.171,2.556-8.753,3.683-17.1,8.8-24.823,13.8-.1.062-15.209,9.961-19.985,12.844,6.266-13.246,9.246-29.913,8.66-47.93h0a145.793,145.793,0,0,0-1.5-16.6c.136.045.275.086.41.131,2.492.828,5,1.537,7.426,2.105,25.406,5.985,52.305-.222,71.951-16.6,14.709-12.241,25.76-30.1,32.863-53.121,2.405-7.987,10.333-13.238,18.58-11.59a16.329,16.329,0,0,1,5.375,2.126,16.027,16.027,0,0,1,6.942,9.3l.091.33a8,8,0,0,0,7.679,5.875h.033a8,8,0,0,0,7.7-5.811l2.713-9.806a16,16,0,0,1,31.019.674,8,8,0,0,0,15.12,1.4l5.11-11.658a16.017,16.017,0,0,1,20.789-8.347c7.342,3.056,11.322,11.65,9.061,19.567-.024.087-.032.113-.053.2l-.046.146c-.013.039-.025.078-.037.117a14.62,14.62,0,0,1-.615,1.654l-2.25,5.121A8,8,0,0,0,386.6,340.4l20.262-24.053a16.7,16.7,0,0,1,18.82-4.789,15.214,15.214,0,0,1,4.3,2.649,16.079,16.079,0,0,1,1.689,22.356l-1.2,1.431a8,8,0,0,0,9.293,12.489l11.553-4.976a16.882,16.882,0,0,1,12.992-.077,15.592,15.592,0,0,1,8.652,8.536,16.08,16.08,0,0,1-8.5,20.729l-9.22,3.96a8,8,0,0,0,1.1,15.082l11.278,3a16.883,16.883,0,0,1,10.265,7.967A15.565,15.565,0,0,1,479.408,416.758Z"/></g></svg>
